<svg xmlns="http://www.w3.org/2000/svg" xmlns:v="https://svgstorm.com"
viewBox = "0 0 1540 497"
width="1540"
height="497">
<g fill="None" fill-opacity="0.0" stroke="#FEFFFF" stroke-opacity="1.00" stroke-width="0.3"><path d="
M 0.00 497.00 
L 1540.00 497.00
L 1540.00 0.00
L 0.00 0.00
L 0.00 497.00
M 180.00 63.00 
C 176.13 71.55 189.20 71.63 196.02 74.98 C 202.85 78.32 211.82 81.62 219.23 84.77 C 226.64 87.92 235.49 90.61 243.08 93.92 C 250.67 97.24 259.00 100.60 267.00 103.00
C 268.24 94.58 277.15 102.83 282.00 103.00
C 268.86 152.13 215.38 168.64 173.00 180.00
C 185.36 186.60 198.06 190.02 211.00 183.00
C 231.96 217.67 227.86 262.80 205.25 295.25 C 182.63 327.69 145.43 337.11 110.00 346.00
C 120.67 354.32 133.67 357.20 146.00 351.00
C 161.05 377.79 164.90 412.03 153.00 441.00
C 147.95 440.99 144.08 437.02 139.00 437.00
C 138.93 434.48 140.08 432.27 141.00 430.00
C 111.38 418.15 81.93 405.80 52.00 395.00
C 51.67 404.32 42.03 396.98 37.00 396.00
C 48.73 348.49 100.20 332.02 141.00 321.00
C 130.29 317.44 119.31 309.33 108.00 316.00
C 86.20 281.66 90.93 237.47 112.75 204.75 C 134.58 172.04 172.59 162.77 208.00 154.00
C 198.55 145.65 184.31 142.65 172.00 148.00
C 168.32 139.74 165.89 133.85 163.02 124.98 C 160.16 116.10 158.16 107.15 158.00 97.00 C 157.84 86.85 160.71 78.65 162.33 68.33 C 163.95 58.00 171.07 56.50 180.00 63.00
M 563.00 153.00 
C 563.01 163.35 562.98 173.65 563.00 184.00 C 563.02 194.35 562.97 204.63 563.00 215.00 C 563.03 225.37 562.94 235.59 563.00 246.00 C 563.06 256.41 562.87 267.61 563.00 278.00 C 563.13 288.39 562.70 298.71 563.00 309.00 C 563.30 319.29 565.68 331.94 553.00 330.00 C 540.32 328.06 533.18 331.45 521.00 330.00
C 521.00 271.00 521.00 212.00 521.00 153.00
C 535.00 153.00 549.00 153.00 563.00 153.00
M 939.00 153.00 
C 939.00 187.33 939.00 221.67 939.00 256.00
C 950.43 238.49 961.57 220.12 972.00 202.00
C 987.67 202.00 1003.33 202.00 1019.00 202.00
C 1014.71 212.75 1002.61 223.20 998.75 233.75 C 994.88 244.29 977.63 255.84 981.26 266.74 C 984.88 277.64 998.11 286.91 1003.25 297.75 C 1008.39 308.59 1019.76 318.56 1024.00 330.00
C 1012.24 331.86 1000.79 327.51 989.00 330.00 C 977.21 332.49 972.53 323.73 967.75 315.25 C 962.97 306.78 958.71 300.91 954.08 292.92 C 949.44 284.94 944.60 278.84 940.00 271.00
C 937.67 289.76 939.66 310.49 939.00 330.00
C 925.00 330.00 911.00 330.00 897.00 330.00
C 897.00 271.00 897.00 212.00 897.00 153.00
C 911.00 153.00 925.00 153.00 939.00 153.00
M 1416.00 153.00 
C 1416.00 175.67 1416.00 198.33 1416.00 221.00
C 1429.39 191.16 1485.35 194.51 1496.77 224.23 C 1508.19 253.94 1509.66 298.19 1482.30 320.30 C 1454.95 342.41 1406.10 328.64 1374.00 327.00
C 1374.00 269.00 1374.00 211.00 1374.00 153.00
C 1388.00 153.00 1402.00 153.00 1416.00 153.00
M 398.00 289.00 
C 398.00 302.67 398.00 316.33 398.00 330.00
C 386.48 328.97 373.37 331.38 362.00 330.00 C 350.63 328.62 357.18 310.26 356.00 300.00 C 354.82 289.74 356.38 274.97 356.00 264.00 C 355.62 253.03 355.85 239.00 356.00 228.00 C 356.15 217.00 355.21 202.37 356.00 192.00 C 356.79 181.63 351.07 163.25 363.00 163.00 C 374.93 162.76 387.44 162.89 399.00 163.00 C 410.56 163.11 424.10 162.45 435.00 163.00 C 445.90 163.55 456.53 165.08 466.02 167.98 C 475.52 170.87 481.31 174.69 487.75 182.25 C 494.19 189.81 495.39 199.32 497.00 209.00 C 498.61 218.68 498.44 233.34 497.01 243.01 C 495.58 252.67 493.45 261.65 487.25 269.25 C 481.04 276.84 475.46 280.83 465.93 283.93 C 456.39 287.03 446.02 288.75 435.00 289.00 C 423.98 289.25 409.35 288.82 398.00 289.00
M 713.00 330.00 
C 703.99 330.99 697.24 328.68 688.00 330.00 C 678.76 331.32 672.43 328.63 674.00 318.00
C 656.85 332.76 624.55 337.86 603.77 326.23 C 582.99 314.60 576.89 282.09 594.75 263.75 C 612.62 245.42 648.44 251.89 673.00 251.00
C 672.41 233.71 655.54 232.28 641.00 232.00 C 626.46 231.72 609.17 234.38 595.00 237.00
C 596.10 225.44 590.20 207.32 603.00 205.00 C 615.80 202.69 627.23 200.45 640.00 201.00 C 652.77 201.55 667.11 200.36 678.02 203.98 C 688.94 207.59 695.96 209.79 702.75 219.25 C 709.54 228.70 711.95 237.97 712.98 250.02 C 714.00 262.08 713.50 277.25 714.00 290.00 C 714.50 302.75 713.68 317.33 713.00 330.00
M 868.00 330.00 
C 854.00 330.00 840.00 330.00 826.00 330.00
C 826.27 305.94 826.08 279.47 825.00 256.00 C 823.92 232.53 785.07 232.54 784.00 256.00 C 782.93 279.47 782.72 305.94 783.00 330.00
C 769.00 330.00 755.00 330.00 741.00 330.00
C 741.00 287.33 741.00 244.67 741.00 202.00
C 754.33 202.00 767.67 202.00 781.00 202.00
C 781.88 209.61 781.71 218.13 784.00 225.00
C 792.99 196.18 845.36 188.51 860.31 218.70 C 875.25 248.88 864.88 295.63 868.00 330.00
M 1350.00 279.00 
C 1321.00 279.00 1292.00 279.00 1263.00 279.00
C 1264.41 295.85 1279.96 297.61 1295.00 298.00 C 1310.04 298.39 1329.89 297.38 1345.00 296.00
C 1345.00 306.00 1345.00 316.00 1345.00 326.00
C 1315.27 330.63 1271.68 340.70 1245.25 320.75 C 1218.83 300.79 1216.87 262.31 1228.78 231.78 C 1240.68 201.24 1281.73 196.40 1313.02 202.98 C 1344.32 209.55 1359.95 247.81 1350.00 279.00
M 1069.00 202.00 
C 1072.64 229.49 1078.96 256.33 1082.00 284.00
C 1089.87 257.59 1093.04 228.81 1101.00 202.00
C 1113.33 202.00 1125.67 202.00 1138.00 202.00
C 1143.34 229.40 1150.46 256.36 1155.00 284.00
C 1158.05 274.94 1158.95 264.46 1160.78 254.78 C 1162.60 245.10 1163.45 234.31 1165.93 224.93 C 1168.41 215.55 1165.24 200.70 1178.00 202.00 C 1190.76 203.30 1201.43 201.03 1214.00 202.00
C 1202.69 244.57 1192.58 287.50 1181.00 330.00
C 1169.21 332.03 1161.16 327.29 1149.00 330.00 C 1136.84 332.71 1133.26 324.02 1132.02 313.98 C 1130.79 303.93 1127.28 297.82 1125.67 288.33 C 1124.06 278.83 1120.51 270.74 1120.00 261.00
C 1112.80 282.77 1109.48 307.35 1103.00 330.00
C 1091.30 328.18 1073.04 332.42 1062.00 330.00 C 1050.96 327.58 1054.25 310.34 1050.07 300.93 C 1045.90 291.51 1045.02 278.61 1041.68 268.32 C 1038.33 258.03 1036.60 246.38 1033.22 235.78 C 1029.85 225.18 1028.45 212.69 1025.00 202.00
C 1039.67 202.00 1054.33 202.00 1069.00 202.00 Z"/>
</g>
<g fill="None" fill-opacity="0.0" stroke="#14297C" stroke-opacity="1.00" stroke-width="0.3"><path d="
M 180.00 63.00 
C 171.07 56.50 163.95 58.00 162.33 68.33 C 160.71 78.65 157.84 86.85 158.00 97.00 C 158.16 107.15 160.16 116.10 163.02 124.98 C 165.89 133.85 168.32 139.74 172.00 148.00
C 184.31 142.65 198.55 145.65 208.00 154.00
C 172.59 162.77 134.58 172.04 112.75 204.75 C 90.93 237.47 86.20 281.66 108.00 316.00
C 119.31 309.33 130.29 317.44 141.00 321.00
C 100.20 332.02 48.73 348.49 37.00 396.00
C 42.03 396.98 51.67 404.32 52.00 395.00
C 81.93 405.80 111.38 418.15 141.00 430.00
C 140.08 432.27 138.93 434.48 139.00 437.00
C 144.08 437.02 147.95 440.99 153.00 441.00
C 164.90 412.03 161.05 377.79 146.00 351.00
C 133.67 357.20 120.67 354.32 110.00 346.00
C 145.43 337.11 182.63 327.69 205.25 295.25 C 227.86 262.80 231.96 217.67 211.00 183.00
C 198.06 190.02 185.36 186.60 173.00 180.00
C 215.38 168.64 268.86 152.13 282.00 103.00
C 277.15 102.83 268.24 94.58 267.00 103.00
C 259.00 100.60 250.67 97.24 243.08 93.92 C 235.49 90.61 226.64 87.92 219.23 84.77 C 211.82 81.62 202.85 78.32 196.02 74.98 C 189.20 71.63 176.13 71.55 180.00 63.00
M 259.00 116.00 
C 255.20 131.25 240.34 120.67 230.31 116.69 C 220.27 112.72 207.39 108.20 197.32 103.68 C 187.26 99.16 168.54 97.83 174.00 83.00
C 202.58 93.06 230.54 105.39 259.00 116.00
M 240.00 136.00 
C 232.24 150.18 215.24 139.75 203.98 135.02 C 192.71 130.30 173.37 127.21 175.00 111.00
C 196.90 118.57 218.01 128.72 240.00 136.00
M 209.00 220.00 
C 186.47 213.37 165.36 202.32 143.00 195.00
C 152.16 183.16 166.83 193.19 178.07 197.93 C 189.32 202.66 208.29 205.19 209.00 220.00
M 209.00 248.00 
C 180.22 238.47 152.55 225.44 124.00 215.00
C 128.65 200.27 142.67 210.33 152.68 214.32 C 162.69 218.32 175.74 222.85 185.68 227.32 C 195.62 231.79 214.55 233.60 209.00 248.00
M 205.00 263.00 
C 204.43 266.12 202.32 268.76 202.00 272.00
C 171.77 262.64 142.96 248.45 113.00 238.00
C 113.24 234.44 116.09 231.67 116.00 228.00
C 145.88 239.00 175.23 251.64 205.00 263.00
M 193.00 285.00 
C 192.84 289.13 189.29 292.70 186.00 295.00
C 160.69 283.46 133.59 274.68 108.00 263.00
C 109.18 259.92 109.09 256.42 109.00 253.00
C 137.51 261.85 164.67 275.31 193.00 285.00
M 174.00 305.00 
C 167.38 316.55 154.85 311.40 144.98 307.02 C 135.10 302.65 124.36 298.11 114.00 295.00
C 112.79 290.31 110.90 285.82 110.00 281.00
C 131.78 287.50 152.26 298.32 174.00 305.00
M 143.00 387.00 
C 122.15 378.17 101.06 370.18 80.00 362.00
C 87.85 349.54 103.29 360.51 114.08 364.92 C 124.86 369.34 144.34 371.60 143.00 387.00
M 145.00 403.00 
C 144.58 406.98 145.99 411.44 144.00 415.00
C 115.93 404.11 88.23 392.39 60.00 382.00
C 64.19 367.98 75.74 375.93 85.08 379.92 C 94.41 383.91 104.94 387.57 114.68 391.32 C 124.42 395.08 134.81 400.29 145.00 403.00 Z"/>
</g>
<g fill="None" fill-opacity="0.0" stroke="#FEFFFF" stroke-opacity="1.00" stroke-width="0.3"><path d="
M 259.00 116.00 
C 230.54 105.39 202.58 93.06 174.00 83.00
C 168.54 97.83 187.26 99.16 197.32 103.68 C 207.39 108.20 220.27 112.72 230.31 116.69 C 240.34 120.67 255.20 131.25 259.00 116.00 Z"/>
</g>
<g fill="None" fill-opacity="0.0" stroke="#FEFFFF" stroke-opacity="1.00" stroke-width="0.3"><path d="
M 240.00 136.00 
C 218.01 128.72 196.90 118.57 175.00 111.00
C 173.37 127.21 192.71 130.30 203.98 135.02 C 215.24 139.75 232.24 150.18 240.00 136.00 Z"/>
</g>
<g fill="None" fill-opacity="0.0" stroke="#14297C" stroke-opacity="1.00" stroke-width="0.3"><path d="
M 563.00 153.00 
C 549.00 153.00 535.00 153.00 521.00 153.00
C 521.00 212.00 521.00 271.00 521.00 330.00
C 533.18 331.45 540.32 328.06 553.00 330.00 C 565.68 331.94 563.30 319.29 563.00 309.00 C 562.70 298.71 563.13 288.39 563.00 278.00 C 562.87 267.61 563.06 256.41 563.00 246.00 C 562.94 235.59 563.03 225.37 563.00 215.00 C 562.97 204.63 563.02 194.35 563.00 184.00 C 562.98 173.65 563.01 163.35 563.00 153.00 Z"/>
</g>
<g fill="None" fill-opacity="0.0" stroke="#14297C" stroke-opacity="1.00" stroke-width="0.3"><path d="
M 939.00 153.00 
C 925.00 153.00 911.00 153.00 897.00 153.00
C 897.00 212.00 897.00 271.00 897.00 330.00
C 911.00 330.00 925.00 330.00 939.00 330.00
C 939.66 310.49 937.67 289.76 940.00 271.00
C 944.60 278.84 949.44 284.94 954.08 292.92 C 958.71 300.91 962.97 306.78 967.75 315.25 C 972.53 323.73 977.21 332.49 989.00 330.00 C 1000.79 327.51 1012.24 331.86 1024.00 330.00
C 1019.76 318.56 1008.39 308.59 1003.25 297.75 C 998.11 286.91 984.88 277.64 981.26 266.74 C 977.63 255.84 994.88 244.29 998.75 233.75 C 1002.61 223.20 1014.71 212.75 1019.00 202.00
C 1003.33 202.00 987.67 202.00 972.00 202.00
C 961.57 220.12 950.43 238.49 939.00 256.00
C 939.00 221.67 939.00 187.33 939.00 153.00 Z"/>
</g>
<g fill="None" fill-opacity="0.0" stroke="#14297C" stroke-opacity="1.00" stroke-width="0.3"><path d="
M 1416.00 153.00 
C 1402.00 153.00 1388.00 153.00 1374.00 153.00
C 1374.00 211.00 1374.00 269.00 1374.00 327.00
C 1406.10 328.64 1454.95 342.41 1482.30 320.30 C 1509.66 298.19 1508.19 253.94 1496.77 224.23 C 1485.35 194.51 1429.39 191.16 1416.00 221.00
C 1416.00 198.33 1416.00 175.67 1416.00 153.00
M 1446.00 236.00 
C 1454.23 237.34 1459.09 243.05 1460.99 251.01 C 1462.89 258.96 1463.40 271.23 1462.00 279.00 C 1460.60 286.77 1455.38 294.09 1447.78 294.78 C 1440.17 295.46 1425.31 299.00 1418.33 295.67 C 1411.35 292.34 1417.80 275.30 1416.00 268.00 C 1414.20 260.70 1416.90 249.07 1422.25 243.25 C 1427.59 237.43 1437.86 234.68 1446.00 236.00 Z"/>
</g>
<g fill="None" fill-opacity="0.0" stroke="#14297C" stroke-opacity="1.00" stroke-width="0.3"><path d="
M 398.00 289.00 
C 409.35 288.82 423.98 289.25 435.00 289.00 C 446.02 288.75 456.39 287.03 465.93 283.93 C 475.46 280.83 481.04 276.84 487.25 269.25 C 493.45 261.65 495.58 252.67 497.01 243.01 C 498.44 233.34 498.61 218.68 497.00 209.00 C 495.39 199.32 494.19 189.81 487.75 182.25 C 481.31 174.69 475.52 170.87 466.02 167.98 C 456.53 165.08 445.90 163.55 435.00 163.00 C 424.10 162.45 410.56 163.11 399.00 163.00 C 387.44 162.89 374.93 162.76 363.00 163.00 C 351.07 163.25 356.79 181.63 356.00 192.00 C 355.21 202.37 356.15 217.00 356.00 228.00 C 355.85 239.00 355.62 253.03 356.00 264.00 C 356.38 274.97 354.82 289.74 356.00 300.00 C 357.18 310.26 350.63 328.62 362.00 330.00 C 373.37 331.38 386.48 328.97 398.00 330.00
C 398.00 316.33 398.00 302.67 398.00 289.00
M 398.00 198.00 
C 407.61 198.10 420.75 197.87 430.00 198.00 C 439.25 198.13 447.85 200.82 451.77 209.23 C 455.69 217.64 455.89 227.79 454.00 237.00 C 452.12 246.21 447.39 251.53 437.33 253.33 C 427.26 255.12 419.00 254.03 407.00 255.00 C 395.00 255.97 397.78 241.50 398.00 231.00 C 398.22 220.50 397.84 208.63 398.00 198.00 Z"/>
</g>
<g fill="None" fill-opacity="0.0" stroke="#FEFFFF" stroke-opacity="1.00" stroke-width="0.3"><path d="
M 209.00 220.00 
C 208.29 205.19 189.32 202.66 178.07 197.93 C 166.83 193.19 152.16 183.16 143.00 195.00
C 165.36 202.32 186.47 213.37 209.00 220.00 Z"/>
</g>
<g fill="None" fill-opacity="0.0" stroke="#FEFFFF" stroke-opacity="1.00" stroke-width="0.3"><path d="
M 398.00 198.00 
C 397.84 208.63 398.22 220.50 398.00 231.00 C 397.78 241.50 395.00 255.97 407.00 255.00 C 419.00 254.03 427.26 255.12 437.33 253.33 C 447.39 251.53 452.12 246.21 454.00 237.00 C 455.89 227.79 455.69 217.64 451.77 209.23 C 447.85 200.82 439.25 198.13 430.00 198.00 C 420.75 197.87 407.61 198.10 398.00 198.00 Z"/>
</g>
<g fill="None" fill-opacity="0.0" stroke="#14297C" stroke-opacity="1.00" stroke-width="0.3"><path d="
M 713.00 330.00 
C 713.68 317.33 714.50 302.75 714.00 290.00 C 713.50 277.25 714.00 262.08 712.98 250.02 C 711.95 237.97 709.54 228.70 702.75 219.25 C 695.96 209.79 688.94 207.59 678.02 203.98 C 667.11 200.36 652.77 201.55 640.00 201.00 C 627.23 200.45 615.80 202.69 603.00 205.00 C 590.20 207.32 596.10 225.44 595.00 237.00
C 609.17 234.38 626.46 231.72 641.00 232.00 C 655.54 232.28 672.41 233.71 673.00 251.00
C 648.44 251.89 612.62 245.42 594.75 263.75 C 576.89 282.09 582.99 314.60 603.77 326.23 C 624.55 337.86 656.85 332.76 674.00 318.00
C 672.43 328.63 678.76 331.32 688.00 330.00 C 697.24 328.68 703.99 330.99 713.00 330.00
M 674.00 277.00 
C 678.05 296.12 662.09 297.13 648.99 300.99 C 635.89 304.85 614.56 292.75 628.08 281.08 C 641.61 269.42 658.65 281.59 674.00 277.00 Z"/>
</g>
<g fill="None" fill-opacity="0.0" stroke="#14297C" stroke-opacity="1.00" stroke-width="0.3"><path d="
M 868.00 330.00 
C 864.88 295.63 875.25 248.88 860.31 218.70 C 845.36 188.51 792.99 196.18 784.00 225.00
C 781.71 218.13 781.88 209.61 781.00 202.00
C 767.67 202.00 754.33 202.00 741.00 202.00
C 741.00 244.67 741.00 287.33 741.00 330.00
C 755.00 330.00 769.00 330.00 783.00 330.00
C 782.72 305.94 782.93 279.47 784.00 256.00 C 785.07 232.54 823.92 232.53 825.00 256.00 C 826.08 279.47 826.27 305.94 826.00 330.00
C 840.00 330.00 854.00 330.00 868.00 330.00 Z"/>
</g>
<g fill="None" fill-opacity="0.0" stroke="#14297C" stroke-opacity="1.00" stroke-width="0.3"><path d="
M 1350.00 279.00 
C 1359.95 247.81 1344.32 209.55 1313.02 202.98 C 1281.73 196.40 1240.68 201.24 1228.78 231.78 C 1216.87 262.31 1218.83 300.79 1245.25 320.75 C 1271.68 340.70 1315.27 330.63 1345.00 326.00
C 1345.00 316.00 1345.00 306.00 1345.00 296.00
C 1329.89 297.38 1310.04 298.39 1295.00 298.00 C 1279.96 297.61 1264.41 295.85 1263.00 279.00
C 1292.00 279.00 1321.00 279.00 1350.00 279.00
M 1315.00 252.00 
C 1297.33 252.00 1279.67 252.00 1262.00 252.00
C 1258.70 222.56 1318.25 222.79 1315.00 252.00 Z"/>
</g>
<g fill="None" fill-opacity="0.0" stroke="#14297C" stroke-opacity="1.00" stroke-width="0.3"><path d="
M 1069.00 202.00 
C 1054.33 202.00 1039.67 202.00 1025.00 202.00
C 1028.45 212.69 1029.85 225.18 1033.22 235.78 C 1036.60 246.38 1038.33 258.03 1041.68 268.32 C 1045.02 278.61 1045.90 291.51 1050.07 300.93 C 1054.25 310.34 1050.96 327.58 1062.00 330.00 C 1073.04 332.42 1091.30 328.18 1103.00 330.00
C 1109.48 307.35 1112.80 282.77 1120.00 261.00
C 1120.51 270.74 1124.06 278.83 1125.67 288.33 C 1127.28 297.82 1130.79 303.93 1132.02 313.98 C 1133.26 324.02 1136.84 332.71 1149.00 330.00 C 1161.16 327.29 1169.21 332.03 1181.00 330.00
C 1192.58 287.50 1202.69 244.57 1214.00 202.00
C 1201.43 201.03 1190.76 203.30 1178.00 202.00 C 1165.24 200.70 1168.41 215.55 1165.93 224.93 C 1163.45 234.31 1162.60 245.10 1160.78 254.78 C 1158.95 264.46 1158.05 274.94 1155.00 284.00
C 1150.46 256.36 1143.34 229.40 1138.00 202.00
C 1125.67 202.00 1113.33 202.00 1101.00 202.00
C 1093.04 228.81 1089.87 257.59 1082.00 284.00
C 1078.96 256.33 1072.64 229.49 1069.00 202.00 Z"/>
</g>
<g fill="None" fill-opacity="0.0" stroke="#FEFFFF" stroke-opacity="1.00" stroke-width="0.3"><path d="
M 209.00 248.00 
C 214.55 233.60 195.62 231.79 185.68 227.32 C 175.74 222.85 162.69 218.32 152.68 214.32 C 142.67 210.33 128.65 200.27 124.00 215.00
C 152.55 225.44 180.22 238.47 209.00 248.00 Z"/>
</g>
<g fill="None" fill-opacity="0.0" stroke="#FEFFFF" stroke-opacity="1.00" stroke-width="0.3"><path d="
M 205.00 263.00 
C 175.23 251.64 145.88 239.00 116.00 228.00
C 116.09 231.67 113.24 234.44 113.00 238.00
C 142.96 248.45 171.77 262.64 202.00 272.00
C 202.32 268.76 204.43 266.12 205.00 263.00 Z"/>
</g>
<g fill="None" fill-opacity="0.0" stroke="#FEFFFF" stroke-opacity="1.00" stroke-width="0.3"><path d="
M 1315.00 252.00 
C 1318.25 222.79 1258.70 222.56 1262.00 252.00
C 1279.67 252.00 1297.33 252.00 1315.00 252.00 Z"/>
</g>
<g fill="None" fill-opacity="0.0" stroke="#FEFFFF" stroke-opacity="1.00" stroke-width="0.3"><path d="
M 1446.00 236.00 
C 1437.86 234.68 1427.59 237.43 1422.25 243.25 C 1416.90 249.07 1414.20 260.70 1416.00 268.00 C 1417.80 275.30 1411.35 292.34 1418.33 295.67 C 1425.31 299.00 1440.17 295.46 1447.78 294.78 C 1455.38 294.09 1460.60 286.77 1462.00 279.00 C 1463.40 271.23 1462.89 258.96 1460.99 251.01 C 1459.09 243.05 1454.23 237.34 1446.00 236.00 Z"/>
</g>
<g fill="None" fill-opacity="0.0" stroke="#FEFFFF" stroke-opacity="1.00" stroke-width="0.3"><path d="
M 193.00 285.00 
C 164.67 275.31 137.51 261.85 109.00 253.00
C 109.09 256.42 109.18 259.92 108.00 263.00
C 133.59 274.68 160.69 283.46 186.00 295.00
C 189.29 292.70 192.84 289.13 193.00 285.00 Z"/>
</g>
<g fill="None" fill-opacity="0.0" stroke="#FEFFFF" stroke-opacity="1.00" stroke-width="0.3"><path d="
M 674.00 277.00 
C 658.65 281.59 641.61 269.42 628.08 281.08 C 614.56 292.75 635.89 304.85 648.99 300.99 C 662.09 297.13 678.05 296.12 674.00 277.00 Z"/>
</g>
<g fill="None" fill-opacity="0.0" stroke="#FEFFFF" stroke-opacity="1.00" stroke-width="0.3"><path d="
M 174.00 305.00 
C 152.26 298.32 131.78 287.50 110.00 281.00
C 110.90 285.82 112.79 290.31 114.00 295.00
C 124.36 298.11 135.10 302.65 144.98 307.02 C 154.85 311.40 167.38 316.55 174.00 305.00 Z"/>
</g>
<g fill="None" fill-opacity="0.0" stroke="#FEFFFF" stroke-opacity="1.00" stroke-width="0.3"><path d="
M 143.00 387.00 
C 144.34 371.60 124.86 369.34 114.08 364.92 C 103.29 360.51 87.85 349.54 80.00 362.00
C 101.06 370.18 122.15 378.17 143.00 387.00 Z"/>
</g>
<g fill="None" fill-opacity="0.0" stroke="#FEFFFF" stroke-opacity="1.00" stroke-width="0.3"><path d="
M 145.00 403.00 
C 134.81 400.29 124.42 395.08 114.68 391.32 C 104.94 387.57 94.41 383.91 85.08 379.92 C 75.74 375.93 64.19 367.98 60.00 382.00
C 88.23 392.39 115.93 404.11 144.00 415.00
C 145.99 411.44 144.58 406.98 145.00 403.00 Z"/>
</g>
<g fill="None" fill-opacity="1.00" stroke="None">
<path d="
M 0.00 497.00 
L 1540.00 497.00
L 1540.00 0.00
L 0.00 0.00
L 0.00 497.00
M 180.00 63.00 
C 176.13 71.55 189.20 71.63 196.02 74.98 C 202.85 78.32 211.82 81.62 219.23 84.77 C 226.64 87.92 235.49 90.61 243.08 93.92 C 250.67 97.24 259.00 100.60 267.00 103.00
C 268.24 94.58 277.15 102.83 282.00 103.00
C 268.86 152.13 215.38 168.64 173.00 180.00
C 185.36 186.60 198.06 190.02 211.00 183.00
C 231.96 217.67 227.86 262.80 205.25 295.25 C 182.63 327.69 145.43 337.11 110.00 346.00
C 120.67 354.32 133.67 357.20 146.00 351.00
C 161.05 377.79 164.90 412.03 153.00 441.00
C 147.95 440.99 144.08 437.02 139.00 437.00
C 138.93 434.48 140.08 432.27 141.00 430.00
C 111.38 418.15 81.93 405.80 52.00 395.00
C 51.67 404.32 42.03 396.98 37.00 396.00
C 48.73 348.49 100.20 332.02 141.00 321.00
C 130.29 317.44 119.31 309.33 108.00 316.00
C 86.20 281.66 90.93 237.47 112.75 204.75 C 134.58 172.04 172.59 162.77 208.00 154.00
C 198.55 145.65 184.31 142.65 172.00 148.00
C 168.32 139.74 165.89 133.85 163.02 124.98 C 160.16 116.10 158.16 107.15 158.00 97.00 C 157.84 86.85 160.71 78.65 162.33 68.33 C 163.95 58.00 171.07 56.50 180.00 63.00
M 563.00 153.00 
C 563.01 163.35 562.98 173.65 563.00 184.00 C 563.02 194.35 562.97 204.63 563.00 215.00 C 563.03 225.37 562.94 235.59 563.00 246.00 C 563.06 256.41 562.87 267.61 563.00 278.00 C 563.13 288.39 562.70 298.71 563.00 309.00 C 563.30 319.29 565.68 331.94 553.00 330.00 C 540.32 328.06 533.18 331.45 521.00 330.00
C 521.00 271.00 521.00 212.00 521.00 153.00
C 535.00 153.00 549.00 153.00 563.00 153.00
M 939.00 153.00 
C 939.00 187.33 939.00 221.67 939.00 256.00
C 950.43 238.49 961.57 220.12 972.00 202.00
C 987.67 202.00 1003.33 202.00 1019.00 202.00
C 1014.71 212.75 1002.61 223.20 998.75 233.75 C 994.88 244.29 977.63 255.84 981.26 266.74 C 984.88 277.64 998.11 286.91 1003.25 297.75 C 1008.39 308.59 1019.76 318.56 1024.00 330.00
C 1012.24 331.86 1000.79 327.51 989.00 330.00 C 977.21 332.49 972.53 323.73 967.75 315.25 C 962.97 306.78 958.71 300.91 954.08 292.92 C 949.44 284.94 944.60 278.84 940.00 271.00
C 937.67 289.76 939.66 310.49 939.00 330.00
C 925.00 330.00 911.00 330.00 897.00 330.00
C 897.00 271.00 897.00 212.00 897.00 153.00
C 911.00 153.00 925.00 153.00 939.00 153.00
M 1416.00 153.00 
C 1416.00 175.67 1416.00 198.33 1416.00 221.00
C 1429.39 191.16 1485.35 194.51 1496.77 224.23 C 1508.19 253.94 1509.66 298.19 1482.30 320.30 C 1454.95 342.41 1406.10 328.64 1374.00 327.00
C 1374.00 269.00 1374.00 211.00 1374.00 153.00
C 1388.00 153.00 1402.00 153.00 1416.00 153.00
M 398.00 289.00 
C 398.00 302.67 398.00 316.33 398.00 330.00
C 386.48 328.97 373.37 331.38 362.00 330.00 C 350.63 328.62 357.18 310.26 356.00 300.00 C 354.82 289.74 356.38 274.97 356.00 264.00 C 355.62 253.03 355.85 239.00 356.00 228.00 C 356.15 217.00 355.21 202.37 356.00 192.00 C 356.79 181.63 351.07 163.25 363.00 163.00 C 374.93 162.76 387.44 162.89 399.00 163.00 C 410.56 163.11 424.10 162.45 435.00 163.00 C 445.90 163.55 456.53 165.08 466.02 167.98 C 475.52 170.87 481.31 174.69 487.75 182.25 C 494.19 189.81 495.39 199.32 497.00 209.00 C 498.61 218.68 498.44 233.34 497.01 243.01 C 495.58 252.67 493.45 261.65 487.25 269.25 C 481.04 276.84 475.46 280.83 465.93 283.93 C 456.39 287.03 446.02 288.75 435.00 289.00 C 423.98 289.25 409.35 288.82 398.00 289.00
M 713.00 330.00 
C 703.99 330.99 697.24 328.68 688.00 330.00 C 678.76 331.32 672.43 328.63 674.00 318.00
C 656.85 332.76 624.55 337.86 603.77 326.23 C 582.99 314.60 576.89 282.09 594.75 263.75 C 612.62 245.42 648.44 251.89 673.00 251.00
C 672.41 233.71 655.54 232.28 641.00 232.00 C 626.46 231.72 609.17 234.38 595.00 237.00
C 596.10 225.44 590.20 207.32 603.00 205.00 C 615.80 202.69 627.23 200.45 640.00 201.00 C 652.77 201.55 667.11 200.36 678.02 203.98 C 688.94 207.59 695.96 209.79 702.75 219.25 C 709.54 228.70 711.95 237.97 712.98 250.02 C 714.00 262.08 713.50 277.25 714.00 290.00 C 714.50 302.75 713.68 317.33 713.00 330.00
M 868.00 330.00 
C 854.00 330.00 840.00 330.00 826.00 330.00
C 826.27 305.94 826.08 279.47 825.00 256.00 C 823.92 232.53 785.07 232.54 784.00 256.00 C 782.93 279.47 782.72 305.94 783.00 330.00
C 769.00 330.00 755.00 330.00 741.00 330.00
C 741.00 287.33 741.00 244.67 741.00 202.00
C 754.33 202.00 767.67 202.00 781.00 202.00
C 781.88 209.61 781.71 218.13 784.00 225.00
C 792.99 196.18 845.36 188.51 860.31 218.70 C 875.25 248.88 864.88 295.63 868.00 330.00
M 1350.00 279.00 
C 1321.00 279.00 1292.00 279.00 1263.00 279.00
C 1264.41 295.85 1279.96 297.61 1295.00 298.00 C 1310.04 298.39 1329.89 297.38 1345.00 296.00
C 1345.00 306.00 1345.00 316.00 1345.00 326.00
C 1315.27 330.63 1271.68 340.70 1245.25 320.75 C 1218.83 300.79 1216.87 262.31 1228.78 231.78 C 1240.68 201.24 1281.73 196.40 1313.02 202.98 C 1344.32 209.55 1359.95 247.81 1350.00 279.00
M 1069.00 202.00 
C 1072.64 229.49 1078.96 256.33 1082.00 284.00
C 1089.87 257.59 1093.04 228.81 1101.00 202.00
C 1113.33 202.00 1125.67 202.00 1138.00 202.00
C 1143.34 229.40 1150.46 256.36 1155.00 284.00
C 1158.05 274.94 1158.95 264.46 1160.78 254.78 C 1162.60 245.10 1163.45 234.31 1165.93 224.93 C 1168.41 215.55 1165.24 200.70 1178.00 202.00 C 1190.76 203.30 1201.43 201.03 1214.00 202.00
C 1202.69 244.57 1192.58 287.50 1181.00 330.00
C 1169.21 332.03 1161.16 327.29 1149.00 330.00 C 1136.84 332.71 1133.26 324.02 1132.02 313.98 C 1130.79 303.93 1127.28 297.82 1125.67 288.33 C 1124.06 278.83 1120.51 270.74 1120.00 261.00
C 1112.80 282.77 1109.48 307.35 1103.00 330.00
C 1091.30 328.18 1073.04 332.42 1062.00 330.00 C 1050.96 327.58 1054.25 310.34 1050.07 300.93 C 1045.90 291.51 1045.02 278.61 1041.68 268.32 C 1038.33 258.03 1036.60 246.38 1033.22 235.78 C 1029.85 225.18 1028.45 212.69 1025.00 202.00
C 1039.67 202.00 1054.33 202.00 1069.00 202.00 Z"/>
</g>
<g fill="#14297C" fill-opacity="1.00" stroke="None">
<path d="
M 180.00 63.00 
C 171.07 56.50 163.95 58.00 162.33 68.33 C 160.71 78.65 157.84 86.85 158.00 97.00 C 158.16 107.15 160.16 116.10 163.02 124.98 C 165.89 133.85 168.32 139.74 172.00 148.00
C 184.31 142.65 198.55 145.65 208.00 154.00
C 172.59 162.77 134.58 172.04 112.75 204.75 C 90.93 237.47 86.20 281.66 108.00 316.00
C 119.31 309.33 130.29 317.44 141.00 321.00
C 100.20 332.02 48.73 348.49 37.00 396.00
C 42.03 396.98 51.67 404.32 52.00 395.00
C 81.93 405.80 111.38 418.15 141.00 430.00
C 140.08 432.27 138.93 434.48 139.00 437.00
C 144.08 437.02 147.95 440.99 153.00 441.00
C 164.90 412.03 161.05 377.79 146.00 351.00
C 133.67 357.20 120.67 354.32 110.00 346.00
C 145.43 337.11 182.63 327.69 205.25 295.25 C 227.86 262.80 231.96 217.67 211.00 183.00
C 198.06 190.02 185.36 186.60 173.00 180.00
C 215.38 168.64 268.86 152.13 282.00 103.00
C 277.15 102.83 268.24 94.58 267.00 103.00
C 259.00 100.60 250.67 97.24 243.08 93.92 C 235.49 90.61 226.64 87.92 219.23 84.77 C 211.82 81.62 202.85 78.32 196.02 74.98 C 189.20 71.63 176.13 71.55 180.00 63.00
M 259.00 116.00 
C 255.20 131.25 240.34 120.67 230.31 116.69 C 220.27 112.72 207.39 108.20 197.32 103.68 C 187.26 99.16 168.54 97.83 174.00 83.00
C 202.58 93.06 230.54 105.39 259.00 116.00
M 240.00 136.00 
C 232.24 150.18 215.24 139.75 203.98 135.02 C 192.71 130.30 173.37 127.21 175.00 111.00
C 196.90 118.57 218.01 128.72 240.00 136.00
M 209.00 220.00 
C 186.47 213.37 165.36 202.32 143.00 195.00
C 152.16 183.16 166.83 193.19 178.07 197.93 C 189.32 202.66 208.29 205.19 209.00 220.00
M 209.00 248.00 
C 180.22 238.47 152.55 225.44 124.00 215.00
C 128.65 200.27 142.67 210.33 152.68 214.32 C 162.69 218.32 175.74 222.85 185.68 227.32 C 195.62 231.79 214.55 233.60 209.00 248.00
M 205.00 263.00 
C 204.43 266.12 202.32 268.76 202.00 272.00
C 171.77 262.64 142.96 248.45 113.00 238.00
C 113.24 234.44 116.09 231.67 116.00 228.00
C 145.88 239.00 175.23 251.64 205.00 263.00
M 193.00 285.00 
C 192.84 289.13 189.29 292.70 186.00 295.00
C 160.69 283.46 133.59 274.68 108.00 263.00
C 109.18 259.92 109.09 256.42 109.00 253.00
C 137.51 261.85 164.67 275.31 193.00 285.00
M 174.00 305.00 
C 167.38 316.55 154.85 311.40 144.98 307.02 C 135.10 302.65 124.36 298.11 114.00 295.00
C 112.79 290.31 110.90 285.82 110.00 281.00
C 131.78 287.50 152.26 298.32 174.00 305.00
M 143.00 387.00 
C 122.15 378.17 101.06 370.18 80.00 362.00
C 87.85 349.54 103.29 360.51 114.08 364.92 C 124.86 369.34 144.34 371.60 143.00 387.00
M 145.00 403.00 
C 144.58 406.98 145.99 411.44 144.00 415.00
C 115.93 404.11 88.23 392.39 60.00 382.00
C 64.19 367.98 75.74 375.93 85.08 379.92 C 94.41 383.91 104.94 387.57 114.68 391.32 C 124.42 395.08 134.81 400.29 145.00 403.00 Z"/>
</g>
<g fill="None" fill-opacity="1.00" stroke="None">
<path d="
M 259.00 116.00 
C 230.54 105.39 202.58 93.06 174.00 83.00
C 168.54 97.83 187.26 99.16 197.32 103.68 C 207.39 108.20 220.27 112.72 230.31 116.69 C 240.34 120.67 255.20 131.25 259.00 116.00 Z"/>
</g>
<g fill="None" fill-opacity="1.00" stroke="None">
<path d="
M 240.00 136.00 
C 218.01 128.72 196.90 118.57 175.00 111.00
C 173.37 127.21 192.71 130.30 203.98 135.02 C 215.24 139.75 232.24 150.18 240.00 136.00 Z"/>
</g>
<g fill="#14297C" fill-opacity="1.00" stroke="None">
<path d="
M 563.00 153.00 
C 549.00 153.00 535.00 153.00 521.00 153.00
C 521.00 212.00 521.00 271.00 521.00 330.00
C 533.18 331.45 540.32 328.06 553.00 330.00 C 565.68 331.94 563.30 319.29 563.00 309.00 C 562.70 298.71 563.13 288.39 563.00 278.00 C 562.87 267.61 563.06 256.41 563.00 246.00 C 562.94 235.59 563.03 225.37 563.00 215.00 C 562.97 204.63 563.02 194.35 563.00 184.00 C 562.98 173.65 563.01 163.35 563.00 153.00 Z"/>
</g>
<g fill="#14297C" fill-opacity="1.00" stroke="None">
<path d="
M 939.00 153.00 
C 925.00 153.00 911.00 153.00 897.00 153.00
C 897.00 212.00 897.00 271.00 897.00 330.00
C 911.00 330.00 925.00 330.00 939.00 330.00
C 939.66 310.49 937.67 289.76 940.00 271.00
C 944.60 278.84 949.44 284.94 954.08 292.92 C 958.71 300.91 962.97 306.78 967.75 315.25 C 972.53 323.73 977.21 332.49 989.00 330.00 C 1000.79 327.51 1012.24 331.86 1024.00 330.00
C 1019.76 318.56 1008.39 308.59 1003.25 297.75 C 998.11 286.91 984.88 277.64 981.26 266.74 C 977.63 255.84 994.88 244.29 998.75 233.75 C 1002.61 223.20 1014.71 212.75 1019.00 202.00
C 1003.33 202.00 987.67 202.00 972.00 202.00
C 961.57 220.12 950.43 238.49 939.00 256.00
C 939.00 221.67 939.00 187.33 939.00 153.00 Z"/>
</g>
<g fill="#14297C" fill-opacity="1.00" stroke="None">
<path d="
M 1416.00 153.00 
C 1402.00 153.00 1388.00 153.00 1374.00 153.00
C 1374.00 211.00 1374.00 269.00 1374.00 327.00
C 1406.10 328.64 1454.95 342.41 1482.30 320.30 C 1509.66 298.19 1508.19 253.94 1496.77 224.23 C 1485.35 194.51 1429.39 191.16 1416.00 221.00
C 1416.00 198.33 1416.00 175.67 1416.00 153.00
M 1446.00 236.00 
C 1454.23 237.34 1459.09 243.05 1460.99 251.01 C 1462.89 258.96 1463.40 271.23 1462.00 279.00 C 1460.60 286.77 1455.38 294.09 1447.78 294.78 C 1440.17 295.46 1425.31 299.00 1418.33 295.67 C 1411.35 292.34 1417.80 275.30 1416.00 268.00 C 1414.20 260.70 1416.90 249.07 1422.25 243.25 C 1427.59 237.43 1437.86 234.68 1446.00 236.00 Z"/>
</g>
<g fill="#14297C" fill-opacity="1.00" stroke="None">
<path d="
M 398.00 289.00 
C 409.35 288.82 423.98 289.25 435.00 289.00 C 446.02 288.75 456.39 287.03 465.93 283.93 C 475.46 280.83 481.04 276.84 487.25 269.25 C 493.45 261.65 495.58 252.67 497.01 243.01 C 498.44 233.34 498.61 218.68 497.00 209.00 C 495.39 199.32 494.19 189.81 487.75 182.25 C 481.31 174.69 475.52 170.87 466.02 167.98 C 456.53 165.08 445.90 163.55 435.00 163.00 C 424.10 162.45 410.56 163.11 399.00 163.00 C 387.44 162.89 374.93 162.76 363.00 163.00 C 351.07 163.25 356.79 181.63 356.00 192.00 C 355.21 202.37 356.15 217.00 356.00 228.00 C 355.85 239.00 355.62 253.03 356.00 264.00 C 356.38 274.97 354.82 289.74 356.00 300.00 C 357.18 310.26 350.63 328.62 362.00 330.00 C 373.37 331.38 386.48 328.97 398.00 330.00
C 398.00 316.33 398.00 302.67 398.00 289.00
M 398.00 198.00 
C 407.61 198.10 420.75 197.87 430.00 198.00 C 439.25 198.13 447.85 200.82 451.77 209.23 C 455.69 217.64 455.89 227.79 454.00 237.00 C 452.12 246.21 447.39 251.53 437.33 253.33 C 427.26 255.12 419.00 254.03 407.00 255.00 C 395.00 255.97 397.78 241.50 398.00 231.00 C 398.22 220.50 397.84 208.63 398.00 198.00 Z"/>
</g>
<g fill="None" fill-opacity="1.00" stroke="None">
<path d="
M 209.00 220.00 
C 208.29 205.19 189.32 202.66 178.07 197.93 C 166.83 193.19 152.16 183.16 143.00 195.00
C 165.36 202.32 186.47 213.37 209.00 220.00 Z"/>
</g>
<g fill="None" fill-opacity="1.00" stroke="None">
<path d="
M 398.00 198.00 
C 397.84 208.63 398.22 220.50 398.00 231.00 C 397.78 241.50 395.00 255.97 407.00 255.00 C 419.00 254.03 427.26 255.12 437.33 253.33 C 447.39 251.53 452.12 246.21 454.00 237.00 C 455.89 227.79 455.69 217.64 451.77 209.23 C 447.85 200.82 439.25 198.13 430.00 198.00 C 420.75 197.87 407.61 198.10 398.00 198.00 Z"/>
</g>
<g fill="#14297C" fill-opacity="1.00" stroke="None">
<path d="
M 713.00 330.00 
C 713.68 317.33 714.50 302.75 714.00 290.00 C 713.50 277.25 714.00 262.08 712.98 250.02 C 711.95 237.97 709.54 228.70 702.75 219.25 C 695.96 209.79 688.94 207.59 678.02 203.98 C 667.11 200.36 652.77 201.55 640.00 201.00 C 627.23 200.45 615.80 202.69 603.00 205.00 C 590.20 207.32 596.10 225.44 595.00 237.00
C 609.17 234.38 626.46 231.72 641.00 232.00 C 655.54 232.28 672.41 233.71 673.00 251.00
C 648.44 251.89 612.62 245.42 594.75 263.75 C 576.89 282.09 582.99 314.60 603.77 326.23 C 624.55 337.86 656.85 332.76 674.00 318.00
C 672.43 328.63 678.76 331.32 688.00 330.00 C 697.24 328.68 703.99 330.99 713.00 330.00
M 674.00 277.00 
C 678.05 296.12 662.09 297.13 648.99 300.99 C 635.89 304.85 614.56 292.75 628.08 281.08 C 641.61 269.42 658.65 281.59 674.00 277.00 Z"/>
</g>
<g fill="#14297C" fill-opacity="1.00" stroke="None">
<path d="
M 868.00 330.00 
C 864.88 295.63 875.25 248.88 860.31 218.70 C 845.36 188.51 792.99 196.18 784.00 225.00
C 781.71 218.13 781.88 209.61 781.00 202.00
C 767.67 202.00 754.33 202.00 741.00 202.00
C 741.00 244.67 741.00 287.33 741.00 330.00
C 755.00 330.00 769.00 330.00 783.00 330.00
C 782.72 305.94 782.93 279.47 784.00 256.00 C 785.07 232.54 823.92 232.53 825.00 256.00 C 826.08 279.47 826.27 305.94 826.00 330.00
C 840.00 330.00 854.00 330.00 868.00 330.00 Z"/>
</g>
<g fill="#14297C" fill-opacity="1.00" stroke="None">
<path d="
M 1350.00 279.00 
C 1359.95 247.81 1344.32 209.55 1313.02 202.98 C 1281.73 196.40 1240.68 201.24 1228.78 231.78 C 1216.87 262.31 1218.83 300.79 1245.25 320.75 C 1271.68 340.70 1315.27 330.63 1345.00 326.00
C 1345.00 316.00 1345.00 306.00 1345.00 296.00
C 1329.89 297.38 1310.04 298.39 1295.00 298.00 C 1279.96 297.61 1264.41 295.85 1263.00 279.00
C 1292.00 279.00 1321.00 279.00 1350.00 279.00
M 1315.00 252.00 
C 1297.33 252.00 1279.67 252.00 1262.00 252.00
C 1258.70 222.56 1318.25 222.79 1315.00 252.00 Z"/>
</g>
<g fill="#14297C" fill-opacity="1.00" stroke="None">
<path d="
M 1069.00 202.00 
C 1054.33 202.00 1039.67 202.00 1025.00 202.00
C 1028.45 212.69 1029.85 225.18 1033.22 235.78 C 1036.60 246.38 1038.33 258.03 1041.68 268.32 C 1045.02 278.61 1045.90 291.51 1050.07 300.93 C 1054.25 310.34 1050.96 327.58 1062.00 330.00 C 1073.04 332.42 1091.30 328.18 1103.00 330.00
C 1109.48 307.35 1112.80 282.77 1120.00 261.00
C 1120.51 270.74 1124.06 278.83 1125.67 288.33 C 1127.28 297.82 1130.79 303.93 1132.02 313.98 C 1133.26 324.02 1136.84 332.71 1149.00 330.00 C 1161.16 327.29 1169.21 332.03 1181.00 330.00
C 1192.58 287.50 1202.69 244.57 1214.00 202.00
C 1201.43 201.03 1190.76 203.30 1178.00 202.00 C 1165.24 200.70 1168.41 215.55 1165.93 224.93 C 1163.45 234.31 1162.60 245.10 1160.78 254.78 C 1158.95 264.46 1158.05 274.94 1155.00 284.00
C 1150.46 256.36 1143.34 229.40 1138.00 202.00
C 1125.67 202.00 1113.33 202.00 1101.00 202.00
C 1093.04 228.81 1089.87 257.59 1082.00 284.00
C 1078.96 256.33 1072.64 229.49 1069.00 202.00 Z"/>
</g>
<g fill="None" fill-opacity="1.00" stroke="None">
<path d="
M 209.00 248.00 
C 214.55 233.60 195.62 231.79 185.68 227.32 C 175.74 222.85 162.69 218.32 152.68 214.32 C 142.67 210.33 128.65 200.27 124.00 215.00
C 152.55 225.44 180.22 238.47 209.00 248.00 Z"/>
</g>
<g fill="None" fill-opacity="1.00" stroke="None">
<path d="
M 205.00 263.00 
C 175.23 251.64 145.88 239.00 116.00 228.00
C 116.09 231.67 113.24 234.44 113.00 238.00
C 142.96 248.45 171.77 262.64 202.00 272.00
C 202.32 268.76 204.43 266.12 205.00 263.00 Z"/>
</g>
<g fill="None" fill-opacity="1.00" stroke="None">
<path d="
M 1315.00 252.00 
C 1318.25 222.79 1258.70 222.56 1262.00 252.00
C 1279.67 252.00 1297.33 252.00 1315.00 252.00 Z"/>
</g>
<g fill="None" fill-opacity="1.00" stroke="None">
<path d="
M 1446.00 236.00 
C 1437.86 234.68 1427.59 237.43 1422.25 243.25 C 1416.90 249.07 1414.20 260.70 1416.00 268.00 C 1417.80 275.30 1411.35 292.34 1418.33 295.67 C 1425.31 299.00 1440.17 295.46 1447.78 294.78 C 1455.38 294.09 1460.60 286.77 1462.00 279.00 C 1463.40 271.23 1462.89 258.96 1460.99 251.01 C 1459.09 243.05 1454.23 237.34 1446.00 236.00 Z"/>
</g>
<g fill="None" fill-opacity="1.00" stroke="None">
<path d="
M 193.00 285.00 
C 164.67 275.31 137.51 261.85 109.00 253.00
C 109.09 256.42 109.18 259.92 108.00 263.00
C 133.59 274.68 160.69 283.46 186.00 295.00
C 189.29 292.70 192.84 289.13 193.00 285.00 Z"/>
</g>
<g fill="None" fill-opacity="1.00" stroke="None">
<path d="
M 674.00 277.00 
C 658.65 281.59 641.61 269.42 628.08 281.08 C 614.56 292.75 635.89 304.85 648.99 300.99 C 662.09 297.13 678.05 296.12 674.00 277.00 Z"/>
</g>
<g fill="None" fill-opacity="1.00" stroke="None">
<path d="
M 174.00 305.00 
C 152.26 298.32 131.78 287.50 110.00 281.00
C 110.90 285.82 112.79 290.31 114.00 295.00
C 124.36 298.11 135.10 302.65 144.98 307.02 C 154.85 311.40 167.38 316.55 174.00 305.00 Z"/>
</g>
<g fill="None" fill-opacity="1.00" stroke="None">
<path d="
M 143.00 387.00 
C 144.34 371.60 124.86 369.34 114.08 364.92 C 103.29 360.51 87.85 349.54 80.00 362.00
C 101.06 370.18 122.15 378.17 143.00 387.00 Z"/>
</g>
<g fill="None" fill-opacity="1.00" stroke="None">
<path d="
M 145.00 403.00 
C 134.81 400.29 124.42 395.08 114.68 391.32 C 104.94 387.57 94.41 383.91 85.08 379.92 C 75.74 375.93 64.19 367.98 60.00 382.00
C 88.23 392.39 115.93 404.11 144.00 415.00
C 145.99 411.44 144.58 406.98 145.00 403.00 Z"/>
</g>
</svg>