
      <svg data-logo="logo" xmlns="http://www.w3.org/2000/svg" viewBox="0 0 145 27">
        <g id="logogram" transform="translate(0, 13.5) rotate(0)"></g>
        <g id="logotype" transform="translate(0, 1)"><path fill="#00bfff" d="M12.25 0.46Q14.56 0.46 16.31 1.41Q18.06 2.35 19.02 4.09Q19.99 5.82 19.99 8.06L19.99 8.06Q19.99 10.26 18.99 11.94Q17.99 13.62 16.19 14.55Q14.39 15.48 12.04 15.48L12.04 15.48L7.07 15.48Q6.90 15.48 6.90 15.65L6.90 15.65L6.90 24.58Q6.90 24.75 6.77 24.88Q6.65 25 6.48 25L6.48 25L2.38 25Q2.21 25 2.08 24.88Q1.96 24.75 1.96 24.58L1.96 24.58L1.96 0.88Q1.96 0.71 2.08 0.59Q2.21 0.46 2.38 0.46L2.38 0.46L12.25 0.46ZM11.52 11.52Q13.13 11.52 14.11 10.60Q15.09 9.67 15.09 8.16L15.09 8.16Q15.09 6.63 14.11 5.68Q13.13 4.73 11.52 4.73L11.52 4.73L7.07 4.73Q6.90 4.73 6.90 4.91L6.90 4.91L6.90 11.35Q6.90 11.52 7.07 11.52L7.07 11.52L11.52 11.52ZM21.98 25Q21.81 25 21.68 24.88Q21.56 24.75 21.56 24.58L21.56 24.58L21.56 0.92Q21.56 0.74 21.68 0.62Q21.81 0.50 21.98 0.50L21.98 0.50L26.08 0.50Q26.25 0.50 26.37 0.62Q26.50 0.74 26.50 0.92L26.50 0.92L26.50 24.58Q26.50 24.75 26.37 24.88Q26.25 25 26.08 25L26.08 25L21.98 25ZM36.12 6.73Q38.40 6.73 40.18 7.52Q41.97 8.30 42.96 9.67Q43.96 11.03 43.96 12.71L43.96 12.71L43.96 24.58Q43.96 24.75 43.84 24.88Q43.72 25 43.54 25L43.54 25L39.45 25Q39.27 25 39.15 24.88Q39.02 24.75 39.02 24.58L39.02 24.58L39.02 23.43Q39.02 23.32 38.95 23.29Q38.89 23.25 38.81 23.36L38.81 23.36Q37.34 25.28 34.09 25.28L34.09 25.28Q31.36 25.28 29.68 23.95Q28 22.62 28 20.03L28 20.03Q28 17.34 29.89 15.85Q31.78 14.36 35.28 14.36L35.28 14.36L38.85 14.36Q39.02 14.36 39.02 14.18L39.02 14.18L39.02 13.41Q39.02 12.26 38.33 11.61Q37.63 10.96 36.23 10.96L36.23 10.96Q35.14 10.96 34.42 11.35Q33.70 11.73 33.50 12.43L33.50 12.43Q33.39 12.82 33.04 12.78L33.04 12.78L28.80 12.22Q28.39 12.15 28.42 11.91L28.42 11.91Q28.56 10.44 29.59 9.25Q30.63 8.06 32.32 7.39Q34.02 6.73 36.12 6.73L36.12 6.73ZM35.42 21.61Q36.92 21.61 37.98 20.80Q39.02 19.99 39.02 18.73L39.02 18.73L39.02 17.48Q39.02 17.30 38.85 17.30L38.85 17.30L36.33 17.30Q34.76 17.30 33.86 17.89Q32.97 18.49 32.97 19.57L32.97 19.57Q32.97 20.52 33.63 21.06Q34.30 21.61 35.42 21.61L35.42 21.61ZM55.65 6.73Q58.45 6.73 60.17 8.44Q61.88 10.16 61.88 13.10L61.88 13.10L61.88 24.58Q61.88 24.75 61.76 24.88Q61.64 25 61.46 25L61.46 25L57.37 25Q57.19 25 57.07 24.88Q56.95 24.75 56.95 24.58L56.95 24.58L56.95 14.11Q56.95 12.71 56.16 11.84Q55.37 10.96 54.08 10.96L54.08 10.96Q52.78 10.96 51.99 11.84Q51.21 12.71 51.21 14.11L51.21 14.11L51.21 24.58Q51.21 24.75 51.08 24.88Q50.96 25 50.79 25L50.79 25L46.69 25Q46.52 25 46.39 24.88Q46.27 24.75 46.27 24.58L46.27 24.58L46.27 7.43Q46.27 7.25 46.39 7.13Q46.52 7.01 46.69 7.01L46.69 7.01L50.79 7.01Q50.96 7.01 51.08 7.13Q51.21 7.25 51.21 7.43L51.21 7.43L51.21 8.65Q51.21 8.76 51.28 8.79Q51.35 8.83 51.38 8.76L51.38 8.76Q52.82 6.73 55.65 6.73L55.65 6.73ZM64.65 25Q64.47 25 64.35 24.88Q64.23 24.75 64.23 24.58L64.23 24.58L64.23 0.92Q64.23 0.74 64.35 0.62Q64.47 0.50 64.65 0.50L64.65 0.50L68.74 0.50Q68.92 0.50 69.04 0.62Q69.16 0.74 69.16 0.92L69.16 0.92L69.16 12.71Q69.16 12.82 69.23 12.84Q69.30 12.85 69.37 12.78L69.37 12.78L74.13 7.25Q74.38 7.01 74.66 7.01L74.66 7.01L79.31 7.01Q79.66 7.01 79.66 7.25L79.66 7.25Q79.66 7.36 79.56 7.53L79.56 7.53L75.11 13.17Q75.04 13.31 75.08 13.41L75.08 13.41L80.29 24.51Q80.36 24.65 80.36 24.72L80.36 24.72Q80.36 25 79.98 25L79.98 25L75.67 25Q75.32 25 75.18 24.68L75.18 24.68L71.72 16.49Q71.68 16.42 71.59 16.41Q71.51 16.39 71.47 16.46L71.47 16.46L69.23 19.26Q69.16 19.40 69.16 19.47L69.16 19.47L69.16 24.58Q69.16 24.75 69.04 24.88Q68.92 25 68.74 25L68.74 25L64.65 25ZM87.47 25Q87.08 25 86.97 24.65L86.97 24.65L80.78 0.95L80.75 0.81Q80.75 0.50 81.13 0.50L81.13 0.50L85.47 0.50Q85.82 0.50 85.92 0.85L85.92 0.85L89.25 15.09Q89.28 15.23 89.36 15.23Q89.42 15.23 89.46 15.09L89.46 15.09L92.68 0.88Q92.78 0.50 93.14 0.50L93.14 0.50L97.37 0.50Q97.75 0.50 97.86 0.85L97.86 0.85L101.36 15.09Q101.40 15.20 101.47 15.22Q101.53 15.23 101.57 15.09L101.57 15.09L104.79 0.88Q104.90 0.50 105.25 0.50L105.25 0.50L109.38 0.50Q109.87 0.50 109.76 0.95L109.76 0.95L104.02 24.65Q103.92 25 103.53 25L103.53 25L99.37 25Q99.02 25 98.91 24.65L98.91 24.65L95.34 9.49Q95.31 9.35 95.23 9.35Q95.17 9.35 95.13 9.49L95.13 9.49L91.81 24.61Q91.73 25 91.35 25L91.35 25L87.47 25ZM125.02 14.15Q125.23 15.48 125.16 17.13L125.16 17.13Q125.13 17.54 124.71 17.54L124.71 17.54L113.89 17.54Q113.68 17.54 113.75 17.72L113.75 17.72Q113.86 18.42 114.14 19.12L114.14 19.12Q115.05 21.08 117.84 21.08L117.84 21.08Q120.09 21.04 121.38 19.26L121.38 19.26Q121.52 19.05 121.70 19.05L121.70 19.05Q121.80 19.05 121.94 19.19L121.94 19.19L124.46 21.68Q124.64 21.85 124.64 21.99L124.64 21.99Q124.64 22.06 124.50 22.27L124.50 22.27Q123.34 23.70 121.52 24.49Q119.70 25.28 117.53 25.28L117.53 25.28Q114.52 25.28 112.44 23.91Q110.36 22.55 109.45 20.10L109.45 20.10Q108.71 18.35 108.71 15.51L108.71 15.51Q108.71 13.59 109.23 12.12L109.23 12.12Q110.04 9.63 112.05 8.16Q114.07 6.69 116.83 6.69L116.83 6.69Q120.33 6.69 122.45 8.72Q124.57 10.75 125.02 14.15L125.02 14.15ZM116.87 10.96Q114.66 10.96 113.96 13.03L113.96 13.03Q113.82 13.48 113.72 14.15L113.72 14.15Q113.72 14.32 113.89 14.32L113.89 14.32L119.95 14.32Q120.16 14.32 120.09 14.15L120.09 14.15Q119.91 13.13 119.91 13.17L119.91 13.17Q119.59 12.12 118.81 11.54Q118.02 10.96 116.87 10.96L116.87 10.96ZM142.97 11.59Q143.64 13.41 143.64 15.93L143.64 15.93Q143.64 18.35 143.05 20.17L143.05 20.17Q142.24 22.55 140.47 23.91Q138.71 25.28 136.29 25.28L136.29 25.28Q133.74 25.28 132.27 23.36L132.27 23.36Q132.19 23.29 132.13 23.30Q132.06 23.32 132.06 23.43L132.06 23.43L132.06 24.58Q132.06 24.75 131.93 24.88Q131.81 25 131.63 25L131.63 25L127.54 25Q127.37 25 127.24 24.88Q127.12 24.75 127.12 24.58L127.12 24.58L127.12 0.92Q127.12 0.74 127.24 0.62Q127.37 0.50 127.54 0.50L127.54 0.50L131.63 0.50Q131.81 0.50 131.93 0.62Q132.06 0.74 132.06 0.92L132.06 0.92L132.06 8.41Q132.06 8.51 132.13 8.55Q132.19 8.58 132.27 8.48L132.27 8.48Q133.63 6.73 136.15 6.73L136.15 6.73Q138.71 6.73 140.44 8.04Q142.17 9.35 142.97 11.59L142.97 11.59ZM137.80 19.54Q138.53 18.21 138.53 16.04L138.53 16.04Q138.53 13.62 137.69 12.33L137.69 12.33Q136.85 10.96 135.21 10.96L135.21 10.96Q133.66 10.96 132.86 12.33L132.86 12.33Q132.09 13.66 132.09 16.00L132.09 16.00Q132.09 18.35 132.79 19.54L132.79 19.54Q133.63 21.04 135.24 21.04L135.24 21.04Q136.96 21.04 137.80 19.54L137.80 19.54Z"/></g>
        
      </svg>
    